<?xml version="1.0" standalone="no"?>
<!DOCTYPE svg PUBLIC "-//W3C//DTD SVG 20010904//EN"
 "http://www.w3.org/TR/2001/REC-SVG-20010904/DTD/svg10.dtd">
<svg version="1.0" xmlns="http://www.w3.org/2000/svg"
 width="260.000000pt" height="260.000000pt" viewBox="0 0 260.000000 260.000000"
 preserveAspectRatio="xMidYMid meet">
<metadata>
Created by potrace 1.14, written by Peter Selinger 2001-2017
</metadata>
<g transform="translate(0.000000,260.000000) scale(0.100000,-0.100000)"
fill="#000000" stroke="none">
<path d="M0 1300 l0 -1300 1300 0 1300 0 0 1300 0 1300 -1300 0 -1300 0 0
-1300z m1180 390 c0 -98 -3 -130 -13 -130 -7 0 -17 10 -22 23 l-10 22 -322 3
-323 2 0 -120 0 -120 215 0 215 0 16 25 c9 14 20 25 25 25 5 0 9 -58 9 -130 0
-71 -4 -130 -9 -130 -5 0 -16 11 -25 25 l-16 25 -215 0 -215 0 0 -200 c0 -189
1 -200 20 -210 44 -24 16 -30 -135 -30 -85 0 -155 3 -155 6 0 4 11 17 25 30
l25 23 0 441 0 441 -25 23 c-14 13 -25 26 -25 30 0 3 206 7 458 8 l457 3 10
23 c5 12 15 22 22 22 10 0 13 -32 13 -130z m998 58 c104 -41 162 -125 162
-233 0 -77 -29 -138 -86 -181 l-41 -31 34 -19 c85 -45 130 -136 121 -247 -11
-136 -101 -229 -247 -257 -58 -11 -811 -14 -811 -4 0 4 11 17 25 30 l25 23 0
441 0 441 -25 23 c-14 13 -25 26 -25 30 0 4 186 6 413 4 357 -3 418 -6 455
-20z"/>
<path d="M1580 1495 l0 -115 220 0 c237 0 272 6 304 51 19 27 21 87 5 123 -22
48 -68 56 -309 56 l-220 0 0 -115z"/>
<path d="M1580 1075 l0 -146 233 3 c252 3 271 7 311 61 28 38 28 126 0 164
-40 54 -59 58 -311 61 l-233 3 0 -146z"/>
</g>
</svg>
